<svg height="512" viewBox="0 0 50 60" width="512" xmlns="http://www.w3.org/2000/svg"><g id="Page-1" fill="none" fill-rule="evenodd"><g id="023---Eco-Idea" fill-rule="nonzero" transform="translate(0 -1)"><g id="Icons" transform="translate(10 2)"><path id="Shape" d="m6 38h18v12c0 1.1045695-.8954305 2-2 2h-14c-1.1045695 0-2-.8954305-2-2z" fill="#7f8e94"/><path id="Shape" d="m21 38v12c0 1.1045695-.8954305 2-2 2h3c1.1045695 0 2-.8954305 2-2v-12z" fill="#545c60"/><path id="Shape" d="m9 52c0 3.3137085 2.6862915 6 6 6s6-2.6862915 6-6z" fill="#607d8b"/><path id="Shape" d="m18 52c-.0043159 2.7324612-1.8543017 5.1168873-4.5 5.8 1.7960526.4728677 3.7098678.0840928 5.1790576-1.0520807 1.4691898-1.1361734 2.3268468-2.8906703 2.3209727-4.7479193z" fill="#37474f"/><path id="Shape" d="m24.04 38h-18.04c-4.27871118-3.9915903-6.45896743-9.7452496-5.9-15.57.05664208-.7248095.15345755-1.4459179.29-2.16.92072845-4.1847877 2.83841566-8.0853429 5.59-11.37 2.50801668-3.15059613 5.3136351-6.05232488 8.378-8.665.3714821-.31106048.9125179-.31106048 1.284 0 5.988 5.036 12.463 11.945 14.008 20.035.1365424.7140821.2333579 1.4351905.29 2.16.5589674 5.8247504-1.6212888 11.5784097-5.9 15.57z" fill="#a4c400"/><path id="Shape" d="m29.94 22.43c-.0566421-.7248095-.1534576-1.4459179-.29-2.16-1.545-8.09-8.02-15-14.008-20.036-.3714821-.31106048-.9125179-.31106048-1.284 0-.283.238-.568.488-.853.739 5.734 4.964 11.674 11.593 13.145 19.3.1365424.7140821.2333579 1.4351905.29 2.16.558007 5.8237384-1.622169 11.5760774-5.9 15.567h3c4.2787112-3.9915903 6.4589674-9.7452496 5.9-15.57z" fill="#90ac00"/></g><g id="Icons_copy" fill="#000"><path id="Shape" d="m40.632 22.083c-1.308-6.853-6-13.6-14.347-20.614-.7419684-.62692309-1.8280316-.62692309-2.57 0-3.1153487 2.65604762-5.9669175 5.60674318-8.515 8.811-2.8625461 3.4023364-4.8489889 7.4534987-5.786 11.8-.14421269.7530635-.2463709 1.5135745-.306 2.278-.55944795 5.9719371 1.6054035 11.8775137 5.892 16.073v11.569c0 1.6568542 1.3431458 3 3 3h.08c.494295 3.441787 3.4428998 5.9971786 6.92 5.9971786s6.425705-2.5553916 6.92-5.9971786h.08c1.6568542 0 3-1.3431458 3-3v-11.531c4.3172135-4.1983616 6.500237-10.1263902 5.937-16.122-.0597605-.759722-.1615834-1.5155479-.305-2.264zm-15.632 36.917c-2.3751008-.0029983-4.4215673-1.6735832-4.9-4h9.8c-.4784327 2.3264168-2.5248992 3.9970017-4.9 4zm7-6h-14c-.5522847 0-1-.4477153-1-1v-2h3c.5522847 0 1-.4477153 1-1s-.4477153-1-1-1h-3v-2h9c.5522847 0 1-.4477153 1-1s-.4477153-1-1-1h-9v-3h16v3h-3c-.5522847 0-1 .4477153-1 1s.4477153 1 1 1h3v2h-9c-.5522847 0-1 .4477153-1 1s.4477153 1 1 1h9v2c0 .5522847-.4477153 1-1 1zm1.654-14h-7.654v-3.532l8.04-6.7c.2843523-.2256201.4241148-.5876116.3651597-.9457805-.0589552-.3581689-.3073693-.6562658-.6490353-.7788424-.3416661-.1225765-.7229263-.0503823-.9961244.1886229l-6.76 5.633v-5.4l8.04-6.7c.4086317-.3574883.4573621-.9757262.109784-1.39282-.3475782-.4170937-.9644685-.4806478-1.389784-.14318l-6.76 5.636v-5.4l5.64-4.7c.4086317-.3574883.4573621-.9757262.109784-1.39282-.3475782-.4170937-.9644685-.4806478-1.389784-.14318l-4.36 3.636v-5.865c0-.5522847-.4477153-1-1-1s-1 .4477153-1 1v5.865l-4.36-3.633c-.2731981-.2390052-.6544583-.3111994-.9961244-.1886229-.341666.1225766-.5900801.4206735-.6490353.7788424-.0589551.3581689.0808074.7201604.3651597.9457805l5.64 4.7v5.4l-6.76-5.633c-.4253155-.3374678-1.0422058-.2739137-1.389784.14318-.3475781.4170938-.2988477 1.0353317.109784 1.39282l8.04 6.7v5.4l-6.76-5.633c-.4253155-.3374678-1.0422058-.2739137-1.389784.14318-.3475781.4170938-.2988477 1.0353317.109784 1.39282l8.04 6.7v3.526h-7.614c-3.8605696-3.7821552-5.803616-9.1073374-5.286-14.487.0530201-.6896729.1451685-1.3757777.276-2.055.8780299-4.0301176 2.7280755-7.7844503 5.389-10.936 2.4655829-3.09798277 5.2232664-5.9517749 8.235-8.522 7.869 6.617 12.468 13.164 13.671 19.464.1291103.6750621.2205848 1.356781.274 2.042.5180646 5.3827558-1.4269683 10.710918-5.291 14.494z"/><path id="Shape" d="m6 25c0-.5522847-.44771525-1-1-1h-4c-.55228475 0-1 .4477153-1 1s.44771525 1 1 1h4c.55228475 0 1-.4477153 1-1z"/><path id="Shape" d="m49 24h-4c-.5522847 0-1 .4477153-1 1s.4477153 1 1 1h4c.5522847 0 1-.4477153 1-1s-.4477153-1-1-1z"/><path id="Shape" d="m7.18 34.134-3.465 2c-.31195078.1773616-.50495322.5082732-.5057421.8671183-.00078889.3588451.19075673.6906021.50192468.8693336.31116795.1787314.694247.1770325 1.00381742-.0044519l3.465-2c.31195078-.1773616.50495322-.5082732.5057421-.8671183.00078889-.3588451-.19075673-.6906021-.50192468-.8693336-.31116795-.1787314-.694247-.1770325-1.00381742.0044519z"/><path id="Shape" d="m42.321 16c.1755887.0003718.3481299-.0458692.5-.134l3.465-2c.3119508-.1773616.5049532-.5082732.5057421-.8671183s-.1907567-.6906021-.5019247-.8693336c-.3111679-.1787314-.694247-.1770325-1.0038174.0044519l-3.465 2c-.3919413.2263139-.5830208.6876562-.4658809 1.1248223.1171398.4371661.5132928.7411578.9658809.7411777z"/><path id="Shape" d="m46.285 36.134-3.465-2c-.3095704-.1814844-.6926495-.1831833-1.0038174-.0044519-.311168.1787315-.5027136.5104885-.5019247.8693336s.1937913.6897567.5057421.8671183l3.465 2c.3095704.1814844.6926495.1831833 1.0038174.0044519.311168-.1787315.5027136-.5104885.5019247-.8693336s-.1937913-.6897567-.5057421-.8671183z"/><path id="Shape" d="m8.18 14.134-3.465-2c-.47785996-.2716903-1.08542045-.1067416-1.36027453.3693057s-.11393908 1.0846885.36027453 1.3626943l3.465 2c.30957042.1814844.69264947.1831833 1.00381742.0044519.31116795-.1787315.50271357-.5104885.50192468-.8693336-.00078888-.3588451-.19379132-.6897567-.5057421-.8671183z"/></g></g></g></svg>