<svg id="tokens" enable-background="new 0 0 300 300" height="512" viewBox="0 0 300 300" width="512" xmlns="http://www.w3.org/2000/svg"><g><circle cx="177.172" cy="151.923" fill="#eee" r="80"/><g fill="#4c241d"><path d="m258.828 213.579c-1.023 0-2.047-.391-2.828-1.172l-11.312-11.312c-1.562-1.562-1.562-4.094 0-5.656s4.094-1.562 5.656 0l11.312 11.312c1.562 1.562 1.562 4.094 0 5.656-.781.781-1.804 1.172-2.828 1.172z"/><path d="m247.516 213.579c-1.023 0-2.047-.391-2.828-1.172-1.562-1.562-1.562-4.094 0-5.656l11.312-11.313c1.562-1.562 4.094-1.562 5.656 0s1.562 4.094 0 5.656l-11.312 11.312c-.781.782-1.805 1.173-2.828 1.173z"/><circle cx="253.19" cy="168.373" r="4.276"/><circle cx="65.19" cy="196.373" r="4.276"/><circle cx="157.19" cy="44.373" r="4.276"/></g><g><circle cx="153.291" cy="191.904" fill="#ffce56" r="64"/><path d="m153.285 259.903c-18.082 0-35.094-7.014-47.926-19.766-12.883-12.803-20.012-29.857-20.066-48.021-.059-18.162 6.961-35.26 19.766-48.145 12.801-12.885 29.855-20.012 48.02-20.068h.215c37.398 0 67.879 30.365 67.996 67.789.059 18.162-6.961 35.26-19.766 48.145-12.801 12.883-29.855 20.01-48.02 20.066-.074 0-.144 0-.219 0zm.004-128c-.062 0-.121 0-.188 0-16.023.051-31.07 6.34-42.371 17.707-11.297 11.369-17.488 26.455-17.438 42.48.051 16.027 6.336 31.076 17.703 42.373 11.324 11.25 26.336 17.439 42.289 17.439h.195c16.023-.051 31.074-6.338 42.371-17.707 11.297-11.367 17.488-26.453 17.438-42.479 0-.002 0-.002 0-.002-.1-33.016-26.999-59.811-59.999-59.811z" fill="#4c241d"/></g><g><path d="m153.172 167.923-28 48h56z" fill="#ffec95"/><path d="m181.172 219.923h-56c-1.434 0-2.754-.766-3.469-2.008s-.707-2.77.012-4.008l28-48c1.438-2.457 5.477-2.457 6.914 0l28 48c.719 1.238.727 2.766.012 4.008s-2.035 2.008-3.469 2.008zm-49.035-8h42.07l-21.035-36.061z" fill="#4c241d"/></g><g><circle cx="103.172" cy="109.923" fill="#a9ba5a" r="62"/><path d="m103.168 175.923c-36.297 0-65.879-29.469-65.996-65.793-.113-36.393 29.402-66.094 65.793-66.207h.211c36.297 0 65.879 29.469 65.996 65.793v.002c.113 36.391-29.402 66.092-65.793 66.205-.066 0-.141 0-.211 0zm.008-124c-.062 0-.125 0-.188 0-31.977.1-57.914 26.201-57.816 58.182.102 31.918 26.102 57.818 57.996 57.818h.188c31.977-.1 57.914-26.201 57.816-58.182-.102-31.918-26.102-57.818-57.996-57.818z" fill="#4c241d"/></g><g><path d="m81.297 87.785h44v44h-44z" fill="#77a052" transform="matrix(.707 -.707 .707 .707 -47.375 105.197)"/><path d="m103.297 144.897c-1.023 0-2.047-.391-2.828-1.172l-31.113-31.113c-.75-.75-1.172-1.768-1.172-2.828s.422-2.078 1.172-2.828l31.113-31.111c1.562-1.562 4.094-1.562 5.656 0l31.113 31.111c.75.75 1.172 1.768 1.172 2.828s-.422 2.078-1.172 2.828l-31.113 31.113c-.781.782-1.805 1.172-2.828 1.172zm-25.457-35.113 25.457 25.457 25.457-25.457-25.457-25.455z" fill="#4c241d"/></g><g><circle cx="205.065" cy="107.754" fill="#f96e43" r="52"/><path d="m205.059 163.753c-14.891 0-28.898-5.775-39.469-16.277-10.609-10.543-16.477-24.588-16.523-39.547-.047-14.957 5.734-29.039 16.277-39.648s24.59-16.479 39.547-16.525c30.73-.047 56.078 24.945 56.176 55.824.098 30.877-24.949 56.078-55.828 56.174-.059-.001-.122-.001-.18-.001zm.011-103.998c-.051 0-.105 0-.156 0-12.82.041-24.859 5.07-33.895 14.164-9.039 9.096-13.992 21.164-13.953 33.986.039 12.82 5.07 24.859 14.164 33.896 9.059 9 21.066 13.951 33.828 13.951h.156c12.82-.041 24.859-5.07 33.898-14.164 9.039-9.096 13.992-21.164 13.953-33.986-.039-12.82-5.07-24.857-14.164-33.896-9.057-9-21.069-13.951-33.831-13.951z" fill="#4c241d"/></g><g><path d="m219.028 83.923h-27.712l-13.857 24 13.857 24h27.712l13.857-24z" fill="#fc8c29"/><path d="m219.028 135.923h-27.711c-1.43 0-2.75-.762-3.465-2l-13.855-24c-.715-1.238-.715-2.762 0-4l13.855-24c.715-1.238 2.035-2 3.465-2h27.711c1.43 0 2.75.762 3.465 2l13.855 24c.715 1.238.715 2.762 0 4l-13.855 24c-.715 1.238-2.036 2-3.465 2zm-25.403-8h23.094l11.547-20-11.547-20h-23.094l-11.547 20z" fill="#4c241d"/></g></g></svg>